<?xml version="1.0" encoding="UTF-8" standalone="no"?>
<!-- Created with Inkscape (http://www.inkscape.org/) -->

<svg
   xmlns:dc="http://purl.org/dc/elements/1.1/"
   xmlns:cc="http://creativecommons.org/ns#"
   xmlns:rdf="http://www.w3.org/1999/02/22-rdf-syntax-ns#"
   xmlns:svg="http://www.w3.org/2000/svg"
   xmlns="http://www.w3.org/2000/svg"
   xmlns:sodipodi="http://sodipodi.sourceforge.net/DTD/sodipodi-0.dtd"
   xmlns:inkscape="http://www.inkscape.org/namespaces/inkscape"
   id="svg4136"
   version="1.1"
   inkscape:version="0.91 r13725"
   xml:space="preserve"
   width="744.09424"
   height="744.09424"
   viewBox="0 0 744.09424 744.09427"
   sodipodi:docname="Spawn_Mask.svg"><metadata
     id="metadata4142"><rdf:RDF><cc:Work
         rdf:about=""><dc:format>image/svg+xml</dc:format><dc:type
           rdf:resource="http://purl.org/dc/dcmitype/StillImage" /><dc:title></dc:title></cc:Work></rdf:RDF></metadata><defs
     id="defs4140"><linearGradient
       x1="433.81641"
       y1="439.7627"
       x2="433.81589"
       y2="324.48877"
       gradientUnits="userSpaceOnUse"
       spreadMethod="pad"
       id="linearGradient4148"><stop
         style="stop-opacity:1;stop-color:#94bf63"
         offset="0"
         id="stop4150" /><stop
         style="stop-opacity:1;stop-color:#04914f"
         offset="0.5"
         id="stop4152" /><stop
         style="stop-opacity:1;stop-color:#226039"
         offset="1"
         id="stop4154" /></linearGradient><radialGradient
       fx="433.8125"
       fy="403.2207"
       cx="433.8125"
       cy="403.2207"
       r="37.273529"
       gradientUnits="userSpaceOnUse"
       spreadMethod="pad"
       id="radialGradient4158"><stop
         style="stop-opacity:1;stop-color:#6e6f71"
         offset="0"
         id="stop4160" /><stop
         style="stop-opacity:1;stop-color:#000000"
         offset="1"
         id="stop4162" /></radialGradient><radialGradient
       fx="434.85059"
       fy="401.31201"
       cx="434.85059"
       cy="401.31201"
       r="59.995861"
       gradientUnits="userSpaceOnUse"
       spreadMethod="pad"
       id="radialGradient4166"><stop
         style="stop-opacity:1;stop-color:#ffffff"
         offset="0"
         id="stop4168" /><stop
         style="stop-opacity:1;stop-color:#ffffff"
         offset="0.24404165"
         id="stop4170" /><stop
         style="stop-opacity:1;stop-color:#c0c9ce"
         offset="0.53932"
         id="stop4172" /><stop
         style="stop-opacity:1;stop-color:#a8b4c0"
         offset="0.78088"
         id="stop4174" /><stop
         style="stop-opacity:1;stop-color:#c3cdd7"
         offset="1"
         id="stop4176" /></radialGradient><radialGradient
       fx="434.85059"
       fy="401.31104"
       cx="434.85059"
       cy="401.31104"
       r="59.995209"
       gradientUnits="userSpaceOnUse"
       spreadMethod="pad"
       id="radialGradient4180"><stop
         style="stop-opacity:1;stop-color:#ffffff"
         offset="0"
         id="stop4182" /><stop
         style="stop-opacity:1;stop-color:#ffffff"
         offset="0.24404165"
         id="stop4184" /><stop
         style="stop-opacity:1;stop-color:#c0c9ce"
         offset="0.53932"
         id="stop4186" /><stop
         style="stop-opacity:1;stop-color:#a8b4c0"
         offset="0.78088"
         id="stop4188" /><stop
         style="stop-opacity:1;stop-color:#c3cdd7"
         offset="1"
         id="stop4190" /></radialGradient><linearGradient
       x1="387.57324"
       y1="380.3584"
       x2="413.90546"
       y2="356.52505"
       gradientUnits="userSpaceOnUse"
       spreadMethod="pad"
       id="linearGradient4194"><stop
         style="stop-opacity:1;stop-color:#007f2c"
         offset="0"
         id="stop4196" /><stop
         style="stop-opacity:1;stop-color:#77bb32"
         offset="1"
         id="stop4198" /></linearGradient><linearGradient
       x1="142.49561"
       y1="380.35742"
       x2="168.82854"
       y2="356.52344"
       gradientUnits="userSpaceOnUse"
       gradientTransform="matrix(-1,0,0,1,622.66797,0)"
       spreadMethod="pad"
       id="linearGradient4202"><stop
         style="stop-opacity:1;stop-color:#007f2c"
         offset="0"
         id="stop4204" /><stop
         style="stop-opacity:1;stop-color:#77bb32"
         offset="1"
         id="stop4206" /></linearGradient></defs><sodipodi:namedview
     pagecolor="#ffffff"
     bordercolor="#666666"
     borderopacity="1"
     objecttolerance="10"
     gridtolerance="10"
     guidetolerance="10"
     inkscape:pageopacity="0"
     inkscape:pageshadow="2"
     inkscape:window-width="1920"
     inkscape:window-height="1019"
     id="namedview4138"
     showgrid="false"
     inkscape:zoom="0.78490097"
     inkscape:cx="321.18082"
     inkscape:cy="526.18103"
     inkscape:window-x="-9"
     inkscape:window-y="-9"
     inkscape:window-maximized="1"
     inkscape:current-layer="g4144" /><g
     id="g4144"
     inkscape:groupmode="layer"
     inkscape:label="Spawn_Mask"
     transform="matrix(1.25,0,0,-1.25,-10,712.98218)"><g
       id="g4210"
       transform="matrix(4.9410492,0,0,4.9410492,-1837.8705,-1615.3552)"><path
         inkscape:connector-curvature="0"
         id="path4146"
         style="fill:#ffffff;fill-opacity:1;fill-rule:nonzero;stroke:none"
         d="m 493.81641,322.12598 -120,0 0,120 120,0 0,-120 z" /><path
         inkscape:connector-curvature="0"
         id="path4156"
         style="fill:url(#linearGradient4148);fill-opacity:1;fill-rule:nonzero;stroke:none"
         d="m 491.8877,382.12695 c 0,-31.83398 -25.99903,-57.63769 -58.07032,-57.63769 -32.07324,0 -58.07129,25.80371 -58.07129,57.63769 0,31.83106 25.99805,57.63575 58.07129,57.63575 32.07129,0 58.07032,-25.80469 58.07032,-57.63575 z" /><path
         inkscape:connector-curvature="0"
         id="path4164"
         style="fill:url(#radialGradient4158);fill-opacity:1;fill-rule:nonzero;stroke:none"
         d="m 488.27539,382.12695 c 0,-29.91797 -24.25195,-54.16992 -54.1709,-54.16992 -29.91699,0 -54.16992,24.25195 -54.16992,54.16992 0,29.917 24.25293,54.16895 54.16992,54.16895 29.91895,0 54.1709,-24.25195 54.1709,-54.16895 z" /><path
         inkscape:connector-curvature="0"
         id="path4178"
         style="fill:url(#radialGradient4166);fill-opacity:1;fill-rule:nonzero;stroke:none"
         d="m 483.26465,381.59668 c 0,25.57617 -19.32422,46.59473 -44.04297,49.01953 l 0,-0.0273 c 14.50977,-10.24903 17.32227,-18.58399 17.32227,-18.58399 -5.25,-5.25 -19.75977,-22.49804 -19.75977,-37.20019 3.81445,-1.02246 6.61133,-4.31641 6.61133,-8.23145 0,-3.56836 -2.32227,-6.62402 -5.6211,-7.91211 0.89454,-8.01269 11.10352,-18.15429 11.10352,-18.15429 l -5.22266,-7.28028 c 22.55664,4.34864 39.60938,24.34473 39.60938,48.37012 z" /><path
         inkscape:connector-curvature="0"
         id="path4192"
         style="fill:url(#radialGradient4180);fill-opacity:1;fill-rule:nonzero;stroke:none"
         d="m 430.79004,358.66113 c -3.29981,1.28809 -5.62207,4.34375 -5.62207,7.91211 0,3.91504 2.79687,7.20899 6.6123,8.23145 0,14.70215 -14.51074,31.95019 -19.76074,37.20019 0,0 2.8125,8.33301 17.31934,18.58203 -24.56934,-2.57324 -43.72559,-23.52343 -43.72559,-48.99023 0,-23.89746 16.86914,-43.81445 39.24805,-48.30566 l -5.17578,7.21582 c 0,0 10.208,10.1416 11.10449,18.15429 z" /><path
         inkscape:connector-curvature="0"
         id="path4200"
         style="fill:url(#linearGradient4194);fill-opacity:1;fill-rule:nonzero;stroke:#5d6d62;stroke-width:0.75;stroke-linecap:butt;stroke-linejoin:miter;stroke-miterlimit:4;stroke-dasharray:none;stroke-opacity:1"
         d="m 391.68457,385.98145 c 0,0 -5,-6.5 2,-20.5 l 23.5,-5.33399 -9.66699,4.83399 -14.5,12.66601 -1.33301,8.33399 z" /><path
         inkscape:connector-curvature="0"
         id="path4208"
         style="fill:url(#linearGradient4202);fill-opacity:1;fill-rule:nonzero;stroke:#5d6d62;stroke-width:0.75;stroke-linecap:butt;stroke-linejoin:miter;stroke-miterlimit:4;stroke-dasharray:none;stroke-opacity:1"
         d="m 476.06055,385.98145 c 0,0 5,-6.5 -2,-20.5 l -23.5,-5.33399 9.66601,4.83399 14.5,12.66601 1.33399,8.33399 z" /></g></g></svg>