<?xml version="1.0" encoding="UTF-8" standalone="no"?>
<svg
   xmlns:dc="http://purl.org/dc/elements/1.1/"
   xmlns:cc="http://creativecommons.org/ns#"
   xmlns:rdf="http://www.w3.org/1999/02/22-rdf-syntax-ns#"
   xmlns:svg="http://www.w3.org/2000/svg"
   xmlns="http://www.w3.org/2000/svg"
   xmlns:sodipodi="http://sodipodi.sourceforge.net/DTD/sodipodi-0.dtd"
   xmlns:inkscape="http://www.inkscape.org/namespaces/inkscape"
   version="1.0"
   width="480.000000pt"
   height="480.000000pt"
   viewBox="0 0 480.000000 480.000000"
   preserveAspectRatio="xMidYMid meet"
   id="svg2"
   inkscape:version="0.91 r13725"
   sodipodi:docname="spawn_logo.svg">
  <defs
     id="defs16" />
  <sodipodi:namedview
     pagecolor="#ffffff"
     bordercolor="#666666"
     borderopacity="1"
     objecttolerance="10"
     gridtolerance="10"
     guidetolerance="10"
     inkscape:pageopacity="0"
     inkscape:pageshadow="2"
     inkscape:window-width="1276"
     inkscape:window-height="715"
     id="namedview14"
     showgrid="false"
     inkscape:zoom="0.39333333"
     inkscape:cx="-147.45763"
     inkscape:cy="300"
     inkscape:window-x="0"
     inkscape:window-y="0"
     inkscape:window-maximized="0"
     inkscape:current-layer="svg2" />
  <metadata
     id="metadata4">
    <rdf:RDF>
      <cc:Work
         rdf:about="">
        <dc:format>image/svg+xml</dc:format>
        <dc:type
           rdf:resource="http://purl.org/dc/dcmitype/StillImage" />
        <dc:title />
      </cc:Work>
    </rdf:RDF>
  </metadata>
  <g
     id="g4153">
    <path
       inkscape:connector-curvature="0"
       d="M 220.3,8 C 155,14.4 98.2,44.8 57.6,95.1 c -25.9,32 -42.5,70.5 -49.2,114.4 -2.3,15.1 -2.3,47.9 0,63 8.2,53 30.1,97.1 66.6,133.5 19.4,19.5 39,33.3 64,45.4 21.8,10.5 44,17.3 69.5,21.2 15.1,2.3 47.9,2.3 63,0 53,-8.2 97.1,-30.1 133.5,-66.6 19.5,-19.4 33.3,-39 45.4,-64 15.8,-32.9 22.9,-64 22.9,-101 0,-34.5 -6.1,-63.3 -20.2,-96 C 435.8,105.3 400.8,65.6 362,41.7 343,30.1 315.9,19 293.5,13.7 270.5,8.3 241.1,6 220.3,8 Z m -18,27.7 c 0.4,0.3 -5.7,7.2 -13.6,15.2 -24.3,24.8 -39.6,45.9 -44.6,61.3 l -1.2,3.7 8.3,8.3 c 21.7,21.7 45.1,61.5 64,108.8 5.9,14.8 13.3,36.1 14.2,41.1 0.6,3.4 0.4,3.7 -4.9,7.4 -6.6,4.5 -13.5,11.9 -16.1,17.2 -1.4,2.8 -1.9,6 -1.9,11.8 0,10.2 2.3,15.2 11.8,25.2 l 7,7.3 -0.7,5.8 c -2.9,24.5 -19.3,51.4 -40,65.7 -3.1,2.1 -5.6,4.2 -5.6,4.6 0,0.4 1.3,2.7 2.9,5.1 8,11.9 14,22.3 13.1,22.6 -1.5,0.5 -19,-4.6 -29.5,-8.5 C 138.2,428 105.5,406.5 88.2,387.5 55.9,352.1 37.4,313.3 31.4,267.9 c -2,-15 -1.4,-45.1 1.1,-59.9 13.9,-82.9 73.9,-148.4 155,-169.5 14.7,-3.9 13.9,-3.7 14.8,-2.8 z m 88.2,2.4 c 28.7,6.9 58.4,21.7 82.3,41.1 36.9,30 63.1,73.5 72.6,120.8 14.4,71.1 -8.5,143.8 -61,194 -26.4,25.3 -63.2,45.2 -97.3,52.5 -4.4,0.9 -4.3,0.9 5.9,-15.2 4.5,-6.9 8,-12.6 7.8,-12.7 -0.2,-0.1 -3.5,-2.5 -7.3,-5.3 -20.5,-15 -35.5,-39.8 -38.4,-63.7 l -0.8,-6.9 6.7,-6.6 c 11.2,-11 14.9,-22 11.5,-33.6 -1.4,-5 -2.8,-6.9 -9.3,-13.4 -4.2,-4.2 -9,-8.6 -10.6,-9.7 l -3,-2 1.3,-6 c 3.1,-14 19.3,-54.5 31.6,-78.8 15,-29.8 29,-50.9 44.7,-67.2 5,-5.1 8.8,-10 8.8,-11.1 0,-2.8 -7,-16.8 -12.5,-24.8 -7.6,-11.1 -20.7,-26.6 -34.1,-40.3 -6.8,-7 -12.4,-13 -12.4,-13.5 0,-0.8 0.6,-0.7 13.5,2.4 z"
       id="CircleAndCenter"
       style="fill:#000000;stroke:none" />
    <g
       id="Eyes">
      <path
         style="fill:#58ad46;stroke:none;fill-opacity:1"
         id="LeftEye"
         d="m 53.2,187.7 c -5.5,7.1 -6.6,10.2 -6.4,18.2 0.5,19 10.1,62.9 15.2,69.4 2.5,3.2 9.4,5.8 26.9,10.2 22.7,5.7 54.5,11.1 82.6,14 l 6,0.6 -16,-8.7 C 142,280.9 126.1,271.5 115.5,264.2 87.4,245 64.3,222 57,205.7 c -2.1,-4.6 -2.6,-13.1 -1.1,-18.5 0.5,-1.7 0.8,-3.2 0.6,-3.2 -0.2,0 -1.7,1.7 -3.3,3.7 z"
         inkscape:connector-curvature="0" />
      <path
         style="fill:#58ad46;stroke:none;fill-opacity:1"
         id="RightEye"
         d="m 423.5,186 c 1.8,7.5 1.7,13.7 -0.3,18.4 -3.9,8.6 -11.6,19 -22.2,29.7 -19.8,19.9 -45.4,37.5 -84.5,58.1 l -15,7.9 6.5,-0.6 c 43.9,-4.2 102.3,-16.8 109,-23.5 4.9,-4.9 16,-54.4 16,-71.6 0,-5.5 -3,-12.6 -7.6,-17.9 -2.5,-2.9 -2.5,-2.9 -1.9,-0.5 z"
         inkscape:connector-curvature="0" />
    </g>
  </g>
</svg>
